<svg xmlns="http://www.w3.org/2000/svg" width="24" height="24" viewBox="0 0 24 24">
    <g data-name="그룹 2141" style="opacity:.4">
        <g data-name="그룹 2140" style="clip-path:url(#111fajtnra)">
            <path data-name="패스 1205" d="M20.4 2.4h-1.2V1.2a1.2 1.2 0 0 0-2.4 0v1.2H7.2V1.2a1.2 1.2 0 0 0-2.4 0v1.2H3.6A3.6 3.6 0 0 0 0 6v14.4A3.6 3.6 0 0 0 3.6 24h16.8a3.6 3.6 0 0 0 3.6-3.6V6a3.6 3.6 0 0 0-3.6-3.6m1.2 18a1.2 1.2 0 0 1-1.2 1.2H3.6a1.2 1.2 0 0 1-1.2-1.2V6a1.2 1.2 0 0 1 1.2-1.2h16.8A1.2 1.2 0 0 1 21.6 6zM17.048 9.352a1.2 1.2 0 0 1 0 1.7l-6 6a1.2 1.2 0 0 1-1.7 0l-2.4-2.4a1.2 1.2 0 1 1 1.7-1.7L10.2 14.5l5.152-5.152a1.2 1.2 0 0 1 1.7 0" style="fill=#000"/>
        </g>
    </g>
</svg>
