<svg id="첨부아이콘" xmlns="http://www.w3.org/2000/svg" xmlns:xlink="http://www.w3.org/1999/xlink" width="30" height="28" viewBox="0 0 30 28">
  <g id="그룹_2275" data-name="그룹 2275">
    <g id="그룹_2274" data-name="그룹 2274" clip-path="url(#clip-path)">
      <path id="패스_2057" data-name="패스 2057" d="M26.672,1.787A5.9,5.9,0,0,0,18.42,1.58L14.165,5.555l-2.9,2.707L8.9,10.478A4.283,4.283,0,0,0,8.739,16.6a4.449,4.449,0,0,0,6.212.156l2.175-2.033,3.094-2.891,2.756-2.58a.937.937,0,0,0,.035-1.336.97.97,0,0,0-1.353-.034L18.9,10.457l-3.1,2.889-2.172,2.037a2.516,2.516,0,0,1-3.5-.088,2.409,2.409,0,0,1,.09-3.447l2.372-2.217,2.9-2.708,4.249-3.977a3.978,3.978,0,0,1,5.544.139,3.818,3.818,0,0,1-.141,5.452l-2.909,2.72h0c-.017.013-.033.035-.047.046l-4.193,3.916-6.909,6.456a5.493,5.493,0,0,1-7.672-.193,5.282,5.282,0,0,1,.2-7.541l6.716-6.276,4.386-4.1c.016-.012.03-.028.046-.042l1.42-1.327A.938.938,0,0,0,16.2.861.971.971,0,0,0,14.847.827L13.381,2.194,9,6.3,2.284,12.571a7.145,7.145,0,0,0-.265,10.214,7.436,7.436,0,0,0,10.381.261l6.91-6.461L23.5,12.673,26.461,9.9a5.691,5.691,0,0,0,.211-8.117" transform="translate(0.865 1.485)" fill="#666"/>
    </g>
  </g>
</svg>
