<svg xmlns="http://www.w3.org/2000/svg" width="20" height="20" viewBox="0 0 20 20">
    <path id="패스_2058" data-name="패스 2058" d="M.867,0A.808.808,0,0,0,0,.733V12.362a.808.808,0,0,0,.867.733.808.808,0,0,0,.867-.733V.733A.808.808,0,0,0,.867,0" transform="translate(9.283)" fill="#000"/>
    <path id="패스_2059" data-name="패스 2059" d="M11.677,3.984,6.609.2a1.09,1.09,0,0,0-1.25,0L.291,3.984A.635.635,0,0,0,.246,5.02a1.032,1.032,0,0,0,.67.233,1.047,1.047,0,0,0,.625-.2l4.443-3.32,4.443,3.32a1.083,1.083,0,0,0,1.294-.036.635.635,0,0,0-.044-1.036" transform="translate(4.161 0)" fill="#000"/>
    <path id="패스_2060" data-name="패스 2060" d="M19.1,0H14.328a.843.843,0,0,0-.9.778.843.843,0,0,0,.9.778h3.881V12.19H1.791V1.556H5.672a.843.843,0,0,0,.9-.778A.843.843,0,0,0,5.672,0H.9A.843.843,0,0,0,0,.778v12.19a.843.843,0,0,0,.9.778H19.1a.843.843,0,0,0,.9-.778V.778A.843.843,0,0,0,19.1,0" transform="translate(0 6.254)" fill="#000"/>
</svg>
