<svg data-name="그룹 2261" xmlns="http://www.w3.org/2000/svg" width="20" height="19" viewBox="0 0 20 19">
    <g data-name="그룹 2170" style="clip-path:url(#hew1okrvqa)">
        <path data-name="패스 1256" d="m11.179 8.946-10-8.769A.7.7 0 0 0 .416.068.732.732 0 0 0 0 .731v17.538a.732.732 0 0 0 .416.664.7.7 0 0 0 .3.067.7.7 0 0 0 .464-.175l10-8.769a.74.74 0 0 0 0-1.109" style="fill:#000"/>
        <path data-name="패스 1257" d="m203.179 8.946-10-8.769a.7.7 0 0 0-.763-.11.732.732 0 0 0-.416.664v4l3.536 3.1a2.226 2.226 0 0 1 0 3.334L192 14.266v4a.732.732 0 0 0 .416.664.7.7 0 0 0 .3.067.7.7 0 0 0 .464-.175l10-8.769a.74.74 0 0 0 0-1.109" transform="translate(-183.429)" style="fill:#000"/>
    </g>
</svg>
