<svg data-name="그룹 2152" xmlns="http://www.w3.org/2000/svg" width="18" height="22" viewBox="0 0 18 22">
    <g data-name="그룹 2151" style="clip-path:url(#03fk2xmbwa)">
        <path data-name="패스 1211" d="M90.329 10.476a5.129 5.129 0 0 1-5-5.238 5.005 5.005 0 1 1 10 0 5.129 5.129 0 0 1-5 5.238m0-8.9a3.59 3.59 0 0 0-3.5 3.667 3.5 3.5 0 1 0 7 0 3.59 3.59 0 0 0-3.5-3.667" transform="translate(-81.329)" style="fill=#000"/>
        <path data-name="패스 1212" d="M17.25 265.421H.75a.769.769 0 0 1-.75-.786v-3.667a4.873 4.873 0 0 1 4.75-4.976h8.5a4.873 4.873 0 0 1 4.75 4.976v3.667a.769.769 0 0 1-.75.786M1.5 263.849h15v-2.881a3.334 3.334 0 0 0-3.25-3.4h-8.5a3.334 3.334 0 0 0-3.25 3.4z" transform="translate(0 -243.421)" style="fill=#000"/>
    </g>
</svg>
