<svg xmlns="http://www.w3.org/2000/svg" xmlns:xlink="http://www.w3.org/1999/xlink" width="18" height="19" viewBox="0 0 18 19">
    <g id="그룹_2514" data-name="그룹 2514" transform="translate(0 0)" clip-path="url(#clip-path)">
      <path id="패스_2111" data-name="패스 2111" d="M2.235,21.226a1.58,1.58,0,0,1-1.217-.52,2.82,2.82,0,0,1-.5-2.03V8.512C.5,7.634.5,6.421.5,6.419l1.33-.005a1.477,1.477,0,0,0,.821,1.227H17.909V21.214H2.459a2.062,2.062,0,0,1-.224.012M1.851,8.686,1.845,18.8a1.662,1.662,0,0,0,.173,1.048c.028.032.117.091.321.067l.082-.005H16.579V8.947H2.36l-.126-.053a2.715,2.715,0,0,1-.382-.208" transform="translate(-0.168 -2.226)" fill="#a37d62"/>
      <rect id="사각형_891" data-name="사각형 891" width="1.33" height="11.328" transform="translate(3.754 7.007)" fill="#a37d62"/>
      <path id="패스_2112" data-name="패스 2112" d="M18,5.128H3.569A1.641,1.641,0,0,1,1.914,3.5,1.642,1.642,0,0,1,3.569,1.88H18V0H3.569A3.539,3.539,0,0,0,0,3.5a3.54,3.54,0,0,0,3.569,3.5H18Z" transform="translate(0 0)" fill="#a37d62"/>
      <rect id="사각형_892" data-name="사각형 892" width="13.723" height="1.306" transform="translate(3.587 2.851)" fill="#a37d62"/>
    </g>
</svg>
