<svg xmlns="http://www.w3.org/2000/svg" width="16.933" height="17.967" viewBox="0 0 16.933 17.967">
    <g data-name="그룹 2515" style="clip-path:url(#ea0g9g79va)">
        <path data-name="패스 2113" d="M15.7 78.177a.575.575 0 0 1-.575-.575V72.63a.575.575 0 0 1 1.151 0v4.97a.575.575 0 0 1-.575.575" transform="translate(-12.634 -60.21)" style="fill:#a37d62"/>
        <path data-name="패스 2114" d="M5.546 88.325H.575a.575.575 0 0 1 0-1.151h4.971a.575.575 0 0 1 0 1.151" transform="translate(0 -72.843)" style="fill:#a37d62"/>
        <path data-name="패스 2115" d="M66.886 73.931a.575.575 0 0 1-.437-.2l-3.342-3.9a.575.575 0 0 1 .063-.811l2.089-1.789a.575.575 0 0 1 .811.062l3.341 3.9a.575.575 0 0 1-.062.811l-2.089 1.79a.573.573 0 0 1-.374.138m-2.531-4.411 2.593 3.025 1.215-1.046-2.593-3.021z" transform="translate(-52.617 -56.063)" style="fill:#a37d62"/>
        <path data-name="패스 2116" d="M8.741 12a6 6 0 1 1 3.9-1.442A5.992 5.992 0 0 1 8.741 12m0-10.845a4.847 4.847 0 1 0 3.679 1.69 4.847 4.847 0 0 0-3.683-1.694" transform="translate(-2.29)" style="fill:#a37d62"/>
        <path data-name="패스 2117" d="M59.845 61.494a.575.575 0 0 1-.427-.189L57.331 59a.575.575 0 0 1 .853-.773l2.088 2.3a.575.575 0 0 1-.426.962" transform="translate(-47.782 -48.498)" style="fill:#a37d62"/>
    </g>
</svg>
