<svg xmlns="http://www.w3.org/2000/svg" width="18.212" height="21.396" viewBox="0 0 18.212 21.396">
    <g data-name="그룹 2518" style="clip-path:url(#5tlgfxjaba)">
        <path data-name="패스 2124" d="M16.848 25.106H1.364A1.268 1.268 0 0 1 0 23.968V5.7a1.268 1.268 0 0 1 1.364-1.141h15.484A1.268 1.268 0 0 1 18.212 5.7v18.27a1.268 1.268 0 0 1-1.364 1.139M1.561 23.8h15.09V5.863H1.561z" transform="translate(0 -3.71)" style="fill:#a37d62"/>
        <path data-name="패스 2125" d="M34.877 3h-6.022a.825.825 0 0 1-.887-.741V.74a.824.824 0 0 1 .887-.74h6.022a.824.824 0 0 1 .887.74v1.521a.825.825 0 0 1-.887.739m-5.348-1.3H34.2v-.4h-4.671z" transform="translate(-22.76)" style="fill:#a37d62"/>
        <path data-name="패스 2126" d="M31.906 30.716h-8.06a.662.662 0 1 1 0-1.3h8.06a.662.662 0 1 1 0 1.3" transform="translate(-18.77 -23.935)" style="fill:#a37d62"/>
        <path data-name="패스 2127" d="M31.906 50.456h-8.06a.662.662 0 1 1 0-1.3h8.06a.662.662 0 1 1 0 1.3" transform="translate(-18.77 -39.999)" style="fill:#a37d62"/>
        <path data-name="패스 2128" d="M32.893 74.443a.854.854 0 0 1-.589-.224l-2.556-2.457a.58.58 0 0 1 .077-.92.892.892 0 0 1 1.1.065l1.952 1.877 3.492-3.518a.89.89 0 0 1 1.1-.086.581.581 0 0 1 .1.918l-4.079 4.109a.848.848 0 0 1-.592.236z" transform="translate(-24.053 -56.175)" style="fill:#a37d62"/>
    </g>
</svg>
