<svg xmlns="http://www.w3.org/2000/svg" width="20.086" height="16.747" viewBox="0 0 20.086 16.747">
    <g data-name="그룹 2519" style="clip-path:url(#038c1vzjda)">
        <path data-name="패스 2129" d="M9.484 16.747c0-.076-.023-1.867-1.19-1.867H0V.084h8.031a2.559 2.559 0 0 1 2.077.994A2.651 2.651 0 0 1 12.226 0h7.861v14.791h-8.28a1.909 1.909 0 0 0-1.207 1.954zm-1.19-2.986a2 2 0 0 1 1.785 1.013 2.856 2.856 0 0 1 1.5-1.083l.141-.018h7.246V1.119h-6.74c-1.215 0-1.628 1.361-1.645 1.419l-.7 2.377-.39-2.444A1.389 1.389 0 0 0 8.064 1.2H1.119v12.563H8.3" style="fill:#a37d62"/>
        <path data-name="사각형 900" transform="translate(2.742 5.287)" style="fill:#a37d62" d="M0 0h4.7v1.119H0z"/>
        <path data-name="사각형 901" transform="translate(2.742 8.308)" style="fill:#a37d62" d="M0 0h4.7v1.119H0z"/>
        <path data-name="사각형 902" transform="translate(12.813 5.287)" style="fill:#a37d62" d="M0 0h4.7v1.119H0z"/>
        <path data-name="사각형 903" transform="translate(12.813 8.308)" style="fill:#a37d62" d="M0 0h4.7v1.119H0z"/>
    </g>
</svg>
