<svg xmlns="http://www.w3.org/2000/svg" width="20.232" height="19.178" viewBox="0 0 20.232 19.178">
    <g data-name="그룹 2501" style="clip-path:url(#xka8rfx1sa)">
        <path data-name="패스 2084" d="M90.86 23.952a.611.611 0 0 1-.072-1.219l3.244-.386a.611.611 0 0 1 .144 1.214l-3.244.386a.648.648 0 0 1-.073 0" transform="translate(-74.485 -18.441)" style="fill:#a37d62"/>
        <path data-name="패스 2085" d="M92.476 43.591a.614.614 0 0 1-.2-.033l-2.866-.985a.611.611 0 1 1 .4-1.156l2.866.985a.611.611 0 0 1-.2 1.19" transform="translate(-73.452 -34.154)" style="fill:#a37d62"/>
        <path data-name="패스 2086" d="M86.782 2.853a.611.611 0 0 1-.329-1.127L89.007.1a.611.611 0 1 1 .658 1.031L87.11 2.757a.609.609 0 0 1-.328.1" transform="translate(-71.118)" style="fill:#a37d62"/>
        <path data-name="패스 2087" d="M16.746 20.332H.611A.611.611 0 0 1 0 19.721c0-6.6 1.573-7.133 5.132-7.711.373-.06.755-.123 1.159-.2v-.979a5 5 0 0 1-2.06-2.271 1.838 1.838 0 0 1-1.384-1.891A1.872 1.872 0 0 1 4.1 4.807 5.006 5.006 0 0 1 8.752 1.4a5.01 5.01 0 0 1 4.673 3.462 1.906 1.906 0 0 1 1.091 1.807 1.88 1.88 0 0 1-1.226 1.854 4.974 4.974 0 0 1-2.223 2.4v.893c.4.075.787.137 1.16.2 3.558.578 5.131 1.112 5.131 7.711a.611.611 0 0 1-.611.611m-15.52-1.229h14.9c-.073-5.238-1.141-5.412-4.1-5.893a44.895 44.895 0 0 1-1.7-.3.611.611 0 0 1-.488-.6v-1.782a.611.611 0 0 1 .371-.562 3.745 3.745 0 0 0 2.061-2.209.615.615 0 0 1 .608-.409h.031c.158-.013.376-.278.376-.687s-.221-.678-.38-.685a.611.611 0 0 1-.561-.452 3.859 3.859 0 0 0-3.6-2.909 3.858 3.858 0 0 0-3.6 2.913.611.611 0 0 1-.676.448c-.162-.025-.406.251-.406.686 0 .42.23.687.389.687a.2.2 0 0 0 .048-.006.612.612 0 0 1 .721.4A3.762 3.762 0 0 0 7.163 9.91a.611.611 0 0 1 .35.553v1.852a.611.611 0 0 1-.488.6c-.616.127-1.191.22-1.7.3-2.96.481-4.028.655-4.1 5.893" transform="translate(0 -1.155)" style="fill:#a37d62"/>
    </g>
</svg>
