<svg data-name="그룹 2154" xmlns="http://www.w3.org/2000/svg" width="20" height="20" viewBox="0 0 20 20">
    <g data-name="그룹 2153" style="clip-path:url(#sc1g12116a)">
        <path data-name="패스 1213" d="M181.71 20h-8.75a2.294 2.294 0 0 1-2.292-2.292v-3.75a.625.625 0 0 1 1.25 0v3.75a1.043 1.043 0 0 0 1.042 1.042h8.75a1.043 1.043 0 0 0 1.042-1.042V2.292a1.043 1.043 0 0 0-1.042-1.042h-8.75a1.043 1.043 0 0 0-1.042 1.042v3.75a.625.625 0 1 1-1.25 0v-3.75A2.294 2.294 0 0 1 172.96 0h8.75A2.294 2.294 0 0 1 184 2.292v15.416A2.294 2.294 0 0 1 181.71 20" transform="translate(-164.001)" style="fill=#000" />
        <path data-name="패스 1214" d="M12.708 241.25H.625a.625.625 0 0 1 0-1.25h12.083a.625.625 0 1 1 0 1.25" transform="translate(0 -230.625)" style="fill=#000" />
        <path data-name="패스 1215" d="M224.628 162.547a.625.625 0 0 1-.442-1.068l2.892-2.892-2.892-2.892a.625.625 0 0 1 .884-.884l3.333 3.333a.625.625 0 0 1 0 .884l-3.333 3.333a.62.62 0 0 1-.443.184" transform="translate(-215.253 -148.588)" style="fill=#000" />
    </g>
</svg>
