<svg xmlns="http://www.w3.org/2000/svg" width="19" height="24" viewBox="0 0 19 24">
    <g data-name="그룹 2173" style="opacity:.4">
        <g data-name="그룹 2145" style="clip-path:url(#avrktm670a)">
            <path data-name="패스 1207" d="M17.417 17.181V10.4a8 8 0 0 0-5.542-7.631V2.4a2.375 2.375 0 1 0-4.75 0v.369A8 8 0 0 0 1.583 10.4v6.781A4.444 4.444 0 0 0 0 20.8a.8.8 0 0 0 .792.8h5.654a3.143 3.143 0 0 0 6.108 0h5.654a.8.8 0 0 0 .792-.8 4.444 4.444 0 0 0-1.583-3.619M8.708 2.4a.792.792 0 1 1 1.583 0v.041a7.7 7.7 0 0 0-1.583 0zM9.5 4a6.374 6.374 0 0 1 6.333 6.4v6.4H3.167v-6.4A6.374 6.374 0 0 1 9.5 4m0 18.4a1.575 1.575 0 0 1-1.363-.8h2.726a1.573 1.573 0 0 1-1.362.8M1.661 20a2.62 2.62 0 0 1 .939-1.6h13.8a2.617 2.617 0 0 1 .943 1.6z" style="fill=#000"/>
        </g>
    </g>
</svg>
