<svg xmlns="http://www.w3.org/2000/svg" width="19" height="24" viewBox="0 0 19 24">
    <g data-name="그룹 2139" style="opacity:.4">
        <g data-name="그룹 2138" style="clip-path:url(#tr17r09g4a)">
            <path data-name="패스 1204" d="M19 19.2V0H3.167A3.187 3.187 0 0 0 0 3.2v17.6A3.187 3.187 0 0 0 3.167 24H19v-1.6h-.792v-3.2zm-2.375 3.2H3.167a1.6 1.6 0 0 1 0-3.2h13.458zm.792-4.8H3.167a3.119 3.119 0 0 0-1.583.43V3.2a1.594 1.594 0 0 1 1.583-1.6h14.25zm-7.175-8.585h2.375v1.6h-2.375v2.4H8.659v-2.4H6.284v-1.6h2.375v-2.4h1.583z" style="fill=#000" />
        </g>
    </g>
</svg>
