<svg xmlns="http://www.w3.org/2000/svg" width="24" height="24" viewBox="0 0 24 24">
    <g data-name="그룹 2174" style="opacity:.4">
        <g data-name="그룹 2147" style="clip-path:url(#820vz30fka)">
            <path data-name="패스 1208" d="M12 0a12 12 0 1 0 12 12A12.014 12.014 0 0 0 12 0m0 22.4A10.4 10.4 0 1 1 22.4 12 10.412 10.412 0 0 1 12 22.4" style="fill=#000" />
            <path data-name="패스 1209" d="M168.017 126.844c2.6 0 3.989 1.586 3.989 3.746s-1.4 3.741-4.017 3.741h-2.177v3.829h-2.028v-11.316zm-.3 5.813a2.061 2.061 0 1 0-.011-4.111h-1.9v4.111z" transform="translate(-155.596 -120.502)" style="fill=#000" />
        </g>
    </g>
</svg>
