<svg data-name="그룹 2137" xmlns="http://www.w3.org/2000/svg" width="24" height="24" viewBox="0 0 24 24">
    <g data-name="그룹 2136" style="clip-path:url(#hs4aye4j2a)">
        <path data-name="패스 1203" d="M23.2 13.6h-.8V.8a.8.8 0 0 0-.8-.8H2.4a.8.8 0 0 0-.8.8v12.8H.8a.8.8 0 0 0-.8.8v3.2a.8.8 0 0 0 .8.8h4.222l-2.516 4.4A.8.8 0 0 0 3.2 24h4a.8.8 0 0 0 .694-.4l2.97-5.2h2.272l2.97 5.2a.8.8 0 0 0 .694.4h4a.8.8 0 0 0 .694-1.2l-2.516-4.4H23.2a.8.8 0 0 0 .8-.8v-3.2a.8.8 0 0 0-.8-.8m-20-12h17.6v12H3.2zm3.536 20.8H4.578l2.286-4h2.158zm12.685 0h-2.157l-2.286-4h2.158zm2.979-5.6H1.6v-1.6h20.8z" style="fill=#000" />
    </g>
</svg>
