<svg xmlns="http://www.w3.org/2000/svg" xmlns:xlink="http://www.w3.org/1999/xlink" width="20" height="20" viewBox="0 0 20 20">
  <g id="연필" clip-path="url(#clip-path)">
    <path id="패스_2084" data-name="패스 2084" d="M14.512.29a.988.988,0,0,1,1.4,0l3.556,3.556a.988.988,0,0,1,0,1.4L5.242,19.465a.988.988,0,0,1-.7.289H.988A.988.988,0,0,1,0,18.766V15.211a.988.988,0,0,1,.289-.7ZM1.975,15.62v2.159H4.134L14.7,7.211,12.543,5.052ZM13.94,3.655,16.1,5.814l1.27-1.27L15.21,2.385Z" transform="translate(-0.031 0.308)" fill="#664e3d" fill-rule="evenodd"/>
  </g>
</svg>
